<?xml version="1.0" encoding="utf-8"?>
<!-- Generator: Adobe Illustrator 26.0.1, SVG Export Plug-In . SVG Version: 6.00 Build 0)  -->
<svg version="1.1" id="Capa_1" xmlns="http://www.w3.org/2000/svg" xmlns:xlink="http://www.w3.org/1999/xlink" x="0px" y="0px"
	 viewBox="0 0 159.51 91.81" style="enable-background:new 0 0 159.51 91.81;" xml:space="preserve">
<style type="text/css">
	.st0{display:none;fill-rule:evenodd;clip-rule:evenodd;fill:#FFFFFF;}
	.st1{fill-rule:evenodd;clip-rule:evenodd;}
	.st2{display:none;fill-rule:evenodd;clip-rule:evenodd;}
</style>
<g>
	<polygon class="st0" points="-20.44,-63.86 172.32,-63.86 172.32,128.9 -20.44,128.9 -20.44,-63.86 	"/>
	<path class="st1" d="M156.73,18.47l-45.63,0.01c-1.17,0-1.93-0.55-1.93-3.08l0-10.69c0-3.08-1.05-4.71-2.96-4.71L53.97,0
		c-1.95,0-2.96,1.74-2.96,4.68l0,10.69c0,2.26-0.67,3.08-1.93,3.08l-29.91,0.02c-2.29,0-3.63,1.72-4.32,3.99L0.3,67.39
		C0.11,67.95,0,68.62,0,69.3c0,1.78,0.74,4.08,2.78,4.08l46.3-0.01c1.43,0,1.93,1.03,1.93,3.08l0,10.69c0,3.22,1.18,4.68,2.96,4.68
		l26.12,0l26.11,0c1.78,0,2.96-1.36,2.96-4.65l0-10.69c0-2.19,0.59-3.08,1.93-3.08l29.03-0.01c2,0,3.44-0.83,4.45-3.78l14.4-44.41
		c0.32-0.96,0.54-1.5,0.54-2.65C159.51,19.53,157.86,18.47,156.73,18.47L156.73,18.47L156.73,18.47z M145.23,36.37l-6.94,21.43
		c-0.43,1.24-1.21,1.3-1.75,1.3h-34.45c-1.43,0-1.95,1.03-1.95,3.07l0,12.33c0,2.05-0.57,3.03-1.95,3.03H80.09l-18.1,0
		c-1.21,0-1.95-0.67-1.95-3.06l0-12.33c0-2.25-0.65-3.06-1.95-3.06H15.85c-1.04,0-1.76-1.03-1.76-2.47c0-0.42,0.07-0.81,0.18-1.15
		l6.94-21.43c0.27-0.76,0.7-1.28,1.75-1.28l35.12,0c1.21,0,1.96-0.77,1.96-3.09l0-12.33c0-2.19,0.6-3.07,1.94-3.07l36.19,0
		c1.3,0,1.94,0.91,1.94,3.1l0,12.33c0,2.12,0.62,3.06,1.97,3.06h41.57c1.32,0,1.75,1.38,1.75,2.47
		C145.41,35.63,145.35,36.03,145.23,36.37L145.23,36.37z"/>
	<path class="st2" d="M98.84-2.23c0-0.39-0.31-0.47-0.64-0.47h-0.78v1.79h0.25v-0.78h0.35l0.51,0.78h0.28l-0.53-0.81
		C98.6-1.73,98.84-1.87,98.84-2.23L98.84-2.23L98.84-2.23z M98.14-1.91h-0.47v-0.58h0.48c0.19,0,0.44,0.02,0.44,0.26
		C98.58-2.05,98.5-1.91,98.14-1.91L98.14-1.91z"/>
	<path class="st2" d="M98.01-3.4c-0.89,0-1.61,0.72-1.61,1.6c0,0.88,0.71,1.6,1.61,1.6v0c0.88,0,1.6-0.71,1.6-1.6
		C99.61-2.69,98.9-3.4,98.01-3.4L98.01-3.4L98.01-3.4z M98.01-0.46L98.01-0.46c-0.75,0-1.35-0.61-1.35-1.35
		c0-0.73,0.6-1.34,1.35-1.34c0.74,0,1.34,0.6,1.34,1.34C99.35-1.06,98.76-0.46,98.01-0.46L98.01-0.46z"/>
	<path class="st2" d="M163.04,43.81c0-0.39-0.31-0.47-0.64-0.47h-0.78v1.79h0.25v-0.78h0.35l0.51,0.78h0.28l-0.53-0.81
		C162.8,44.31,163.04,44.17,163.04,43.81L163.04,43.81L163.04,43.81z M162.34,44.13h-0.47v-0.58h0.48c0.19,0,0.44,0.02,0.44,0.26
		C162.79,43.99,162.7,44.13,162.34,44.13L162.34,44.13z"/>
	<path class="st2" d="M162.22,42.63c-0.89,0-1.61,0.72-1.61,1.6c0,0.88,0.71,1.6,1.61,1.6v0c0.88,0,1.6-0.71,1.6-1.6
		C163.81,43.35,163.1,42.63,162.22,42.63L162.22,42.63L162.22,42.63z M162.22,45.58L162.22,45.58c-0.75,0-1.35-0.61-1.35-1.35
		c0-0.73,0.6-1.34,1.35-1.34c0.74,0,1.34,0.6,1.34,1.34C163.55,44.98,162.96,45.58,162.22,45.58L162.22,45.58z"/>
</g>
</svg>
