<svg id="katman_1" data-name="katman 1" xmlns="http://www.w3.org/2000/svg" viewBox="0 0 865.88 954.21"><defs><style>.cls-1{fill:#fff;}</style></defs><path d="M863.81,36c.62,23.6,1.55,46.16,1.71,68.73.26,36.05.72,72.11-.16,108.14-2.31,93.63-12.47,186.26-37.74,276.8-34.2,122.6-95.26,229.6-185.59,319.54A741.12,741.12,0,0,1,439.77,952.41c-4.77,2.3-8.55,2.46-13.41.07C278.8,880,165.58,772.16,90.5,625.31,61.83,569.23,41.87,509.94,27.91,448.59,17.43,402.51,10.62,355.87,6.14,308.84c-6-63-6.69-126.2-5.85-189.42C.63,94.3,1.4,69.18,2,44.06c.06-2.48.3-5,.49-8.08Q433.13-36,863.81,36ZM480.24,816.65c5.47-9.74,10.33-18,14.84-26.51A68.76,68.76,0,0,1,512.25,769c40.92-33.75,81.74-67.61,122.83-101.16,5.8-4.74,9.6-9.86,11.39-17.21a526.44,526.44,0,0,0,14.17-92.4,453.12,453.12,0,0,0-1.61-76,32.52,32.52,0,0,0-5.83-15.42c-21.54-31.21-46-60-72-87.53a19.42,19.42,0,0,0-11.66-6.07c.31,2.39.42,4.36.83,6.27,4.76,22.32,9.68,44.61,14.29,67a25.72,25.72,0,0,0,7.56,13.68,287.28,287.28,0,0,1,35.16,41,43.37,43.37,0,0,1,8,22.67c2.12,39.33,1.83,78.61-2.47,117.84-.87,7.91-4.19,13.36-10.22,18.51q-55.59,47.45-110.63,95.55c-9.39,8.17-18.38,16.78-23.79,28.36-.17.36-.83.49-1.36.78-6.58-17.4-10.3-34.84-4.73-53.45,6.25-20.89,11.69-42,17.45-63,.78-2.86,1.39-5.77,2.08-8.65l-1.53-.62c-1.08,2.14-2.27,4.23-3.23,6.43-7.27,16.75-14.69,33.45-21.66,50.32-5,12.18-9.42,24.63-14.17,36.93a23.88,23.88,0,0,0,.33,19.14c5.34,12.33,10.14,24.9,15.21,37.35C477.5,811.28,478.58,813.23,480.24,816.65ZM366.7,395.49l-2.69.2c.34,6,.51,11.95,1.07,17.9.75,8.07,1.8,16.11,2.73,24.17A24.91,24.91,0,0,1,364,454.47c-3.8,6-7.22,12.24-11.14,18.16a1300.46,1300.46,0,0,1-93.46,123.85c-5.11,6-8.65,12.36-9.46,20.27-1.44,14.12-3,28.23-4.64,42.33a25.57,25.57,0,0,0,4.09,17.4c4.85,7.43,9.53,15,14.79,22.14A1160,1160,0,0,0,355.17,807c10.2,10.8,21.09,20.46,35,26.25,4.44,1.85,8.61,4.33,12.95,6.41a34.58,34.58,0,0,0,4.42,1.44l.93-1.44c-2.68-2.5-5-5.55-8.11-7.39-10.83-6.44-19.85-14.83-28.15-24.2a1220.56,1220.56,0,0,1-86.86-109.74c-5.66-8.1-10.69-16.65-15.91-25a24.66,24.66,0,0,1-3.89-16c1.09-10.09,2.11-20.18,3.4-30.23.71-5.49,3.64-9.78,7.72-13.58,9.1-8.47,18.12-17,26.84-25.9,25.2-25.59,19.58-16.26,35.91-51.07,12.6-26.84,24.09-54.21,36.09-81.33,2-4.48,3.58-9.1,2.41-14C374.29,425.93,370.46,410.72,366.7,395.49ZM418,227.69l.16,2.18c3.95.12,7.92.46,11.87.32,23.07-.82,46.14-1.62,69.19-2.72a49.38,49.38,0,0,1,23.67,4.24c11.5,5.33,23,10.67,34.69,15.57a53.59,53.59,0,0,0,14.53,3.88c9.56,1.07,19.27,1,28.81,2.17,5.66.71,11.69,2,16.58,4.75,20.34,11.4,40.37,23.37,60.38,35.34,4.37,2.61,8.62,4.59,15.57,4-14.77-14.12-28.45-27.23-42.18-40.29a15.55,15.55,0,0,0-3.16-2.11c-32-18.1-64.14-36-97.63-51.27a59.55,59.55,0,0,0-22.75-5.44c-15.46-.63-30.91-1.49-46.37-2.06a1160.8,1160.8,0,0,0-130,2.95c-7.51.57-12.39,3.49-15.66,9.92-4.47,8.76-11.25,15.47-18.73,21.72-14.42,12-28.89,24-44.93,33.86-3.31,2-6.62,4.18-8.11,9.35,7.31-4.07,13.67-7.69,20.1-11.17q40.5-21.85,81-43.68a48.53,48.53,0,0,1,22.47-6.16c12.67-.29,25.33-1.56,38-1.74,32-.45,63.92-.55,95.88-.7a25.17,25.17,0,0,1,15.11,4.74C496.85,218.84,457.32,222.12,418,227.69ZM147.89,393.41c-.52,8.54-2.34,15.92-8.23,21.86-5.36,5.4-10.27,11.25-15.18,17.07-3.48,4.13-3.77,6-.57,10.14,6.19,8,12.69,15.83,19.34,23.48,1.63,1.88,4.37,2.79,7.17,4.49,2.11-9.32,4.05-17.44,5.75-25.61,1.1-5.32,3.77-8.32,9.42-9.33,14.72-2.66,29.34-5.86,44-8.73,8.83-1.72,17.7-3.23,27.58-5-2.34-2.8-3.82-4.79-5.52-6.57-5.26-5.51-10.92-10.67-15.83-16.46-6-7.1-13.23-10.49-22.58-10.25-5.45.14-10.92-.89-16.38-1.39l-.55-1.48a64.63,64.63,0,0,1,5.74-4.18,33.22,33.22,0,0,1,5-1.83q38.41-14.55,76.84-29.1c8.06-3,13.59-8.73,17.6-16.17a4.07,4.07,0,0,0-2.77.88c-9,8.19-19.93,11.78-31.57,13.94-3.73.69-7.4,1.76-11.09,2.66-4.51,1.1-8.83,1.35-13.34-.68-2.31-1.05-5.42-1-8-.59-5.48.94-10.86,2.51-16.3,3.73-1.49.33-3,.36-5.88.67,4.59-4.71,8.24-8,13.25-9.7,5.28-1.77,10.39-4.08,15.67-5.86,4-1.35,6.37-3.39,6.59-8s1.59-9.51,2.07-14.3a10.94,10.94,0,0,1,4.84-8.15c6.32-4.69,12.53-9.52,18.73-14.37,1.77-1.38,3.94-2.6,4.36-6.24-9.4,5.59-17.71,11-26.44,15.61a101.33,101.33,0,0,0-37.53,33.65c-2.74,4.09-6.78,7.5-10.73,10.55-18.28,14.12-36.84,27.87-55.07,42A113.83,113.83,0,0,0,114,403.79c-5.24,5.8-3.89,12.47,3.29,17.34,3.54-2.54,7.23-5.18,10.91-7.84,5.55-4,11.12-7.88,14-14.62C143.15,396.51,146,395.14,147.89,393.41Zm393.91-89.1c10.2,1.13,18.71,2.63,27.49-.51,6.64-2.37,13.85-3.12,20.63-5.19,8.08-2.47,14.83-.75,21.25,4.48,15.17,12.32,30.39,24.59,45.84,36.56a83.06,83.06,0,0,0,15.56,9.27c10.1,4.74,20.45,8.92,30.73,13.27,5.58,2.36,9,6.36,10.13,12.37.37,2,1.06,3.93,1.35,5.93,3,21.08,5.9,42.2,9.07,63.26a58.65,58.65,0,0,1-6.31,36.83c-7.73,14.85-15.28,29.79-23.19,44.55-1.75,3.27-4.09,6.84-7.13,8.69-9.64,5.88-13.81,14-12.9,25.15.32,4-.39,8.18-.62,12.28a19.18,19.18,0,0,0,6-5.57c21.11-28.44,38.34-59.18,53.75-91A25.53,25.53,0,0,0,736,466c3.42-37.85,2.64-75.54-4.27-113A18.07,18.07,0,0,0,724,340.59a696.51,696.51,0,0,0-103.7-60.66c-7.42-3.49-14.38-4-21.91-.74-17,7.41-34,14.58-51.05,21.9A63.06,63.06,0,0,0,541.8,304.31Zm-95,543c.44-7.93-.52-15.33-4-22.36s-6.39-14.38-9.23-21.71c-8.89-22.94-17.83-45.86-26.27-69a39,39,0,0,1-2.37-16.37c1.42-15.4,3.08-30.85,6-46,7.72-40.61,16.16-81.08,24.25-121.62,1.83-9.16-1.76-17.57-3.73-26.28a23.42,23.42,0,0,0-3.39,6.16c-4.72,12.32-9.55,24.6-14,37-13.93,38.4-27,77.07-37.4,116.63A44.85,44.85,0,0,0,379,714.68c19.19,44,41.3,86.55,64.84,128.37C444.69,844.54,445.79,845.89,446.76,847.3ZM240.3,316.46l.57,1.79c5.47,0,11,.33,16.42-.07,12.34-.91,24.89,0,36.94-3.66,15.5-4.72,31-9.41,46.37-14.52,3.12-1,6.6-3.31,8.27-6,8.35-13.6,16.16-27.52,24.11-41.35.34-.59.28-1.41.56-3-11-.41-21.94-1.89-32.21,2.21C324,258.75,306.77,266.25,289.75,274c-4.18,1.91-7.83,5.46-11,8.91A179.34,179.34,0,0,0,264.81,300c-4.46,6.19-9.88,10.67-17.2,13C245.06,313.79,242.73,315.28,240.3,316.46Zm1.34,117.86c-.1.52-.19,1-.29,1.56,2.24.91,4.46,1.9,6.73,2.72,12.15,4.42,24.35,8.71,36.47,13.23,9.36,3.5,12.39,11.24,7.75,19.95a269.54,269.54,0,0,1-29.47,44.29,20.85,20.85,0,0,1-8.34,6.25c-10.94,4-22.13,7.35-33.16,11.14a8.85,8.85,0,0,1-9.72-2c-3.56-3.25-7.25-6.36-10.94-9.45-1.24-1-2.66-1.87-4.71-3.28-.77,9.75-1.81,18.21,2,26.9,3.57,8,5.61,16.8,8,25.34,2,7.08,3.3,14.33,5.14,21.45,1.29,5,2.75,6.19,7.58,5.09a152.21,152.21,0,0,0,21.88-6.32c3.7-1.46,6.58-5,9.83-7.65a8.35,8.35,0,0,0-5.64-.64c-5.94,1.28-11.83,2.85-17.82,3.93-5.27,1-6.23.24-7.27-5-1.48-7.45-2.77-15-4-22.45-1.16-6.81-.8-7.3,6.17-9.69,15.35-5.26,30.68-10.56,46.06-15.73,4-1.34,7.5-3.13,9.64-6.9,11.27-19.86,22.56-39.69,33.68-59.63,1-1.83,1.77-4.69,1.08-6.46-2.51-6.42-5.62-12.47-13.38-14.32-16-3.82-32-8-48-11.79C247.93,434.14,244.73,434.47,241.64,434.32ZM494.1,403.17c-.4-2.53-.58-4-.88-5.44-3.12-14.88-6.21-29.76-9.43-44.61-1.23-5.67-1.53-10.89,2.75-15.72,2.67-3,4.64-6.64,6.76-10.09,12.4-20.1,12.26-14.21,6.71-40.24a10.83,10.83,0,0,0-.82-2.91,6.93,6.93,0,0,0-2.25-2.93c-6.22-3.33-12.2-6.81-20-5.14-20.8,4.46-41.73,8.31-62.57,12.55-8.86,1.81-13.71,7.54-15,17.39,4.42.81,8.93,1.39,13.3,2.51,6.44,1.65,12.28.73,18.42-1.87,12.83-5.42,26-9.94,38.89-15.28,4.95-2.06,9.35-1.54,13.89.37,7.56,3.2,10.89,14.25,6.12,20.83q-8.46,11.7-17.41,23.05c-2.61,3.31-3.33,6.41-2,10.51,4.88,15.19,9.54,30.45,14.14,45.73C486.1,396.49,488.64,400,494.1,403.17ZM252.89,124.05l-68.08,4.74V112.41l60.35-4.67V97.51l-60.26,4.35v-15l67.83-5.15c.19-2.1.44-3.59.43-5.07s-.25-2.88-.48-5.27l-78.93,6v62.86l79.14-6Zm212-5.32c-18.73,0-36.47.09-54.21,0-5.58-.05-7.65-2.27-7.78-8-.17-7.87-.08-15.74,0-23.6,0-9.31,1.23-10.63,10.49-10.66,16.74-.06,33.49,0,50.24.07h8.31V66.54c-1.67-.18-2.9-.42-4.12-.43C449.49,66,431.22,66,413,66a43,43,0,0,0-8.29,1c-7.72,1.58-12,5.55-12.4,13.26-.55,11.9-.51,23.86,0,35.76.3,7.07,4.51,10.93,11.52,12.13a61.29,61.29,0,0,0,9.84.86q27.79.22,55.57.26c2.19,0,4.39-.31,7.13-.52.31-12.51.51-24.51-.07-36.59H433.14v10.11h31.73Zm49.59-41.25L583,80v-10c-26.64-1.3-52.81-2.8-79.73-2.86,0,21.39-.09,41.77,0,62.45l80.21,3.06c-.18-4-.32-6.93-.47-10.27l-68.48-2.82V103.94c10.56,0,20.65,0,30.73,0s20,1.83,29.93.92V94.94l-60.71-2.46Zm182.21,31.94h0V95c0-.51,0-1,0-1.52-.41-8.31-4-13.11-12-15.6a34.32,34.32,0,0,0-7.42-1.52q-23.09-1.86-46.21-3.46a49.43,49.43,0,0,0-8.34.18c-8.07.82-12.22,4.48-12.53,12.53-.45,11.63-.45,23.31,0,35,.35,7.87,4.28,11.85,12,13.67a71.21,71.21,0,0,0,10.5,1.51c11.1.94,22.21,1.82,33.33,2.54a158.28,158.28,0,0,0,18.21.5c7.87-.38,12-4.74,12.34-12.62C696.88,120.58,696.67,115,696.67,109.42Zm-620,21.85c14.44-1.64,27.75-3.1,41.05-4.71,6.27-.76,12.58-1.45,18.73-2.8S147.2,118.47,148,112.1a89.1,89.1,0,0,0,.13-19.59c-.58-5.87-4.66-9.44-10.58-10.3a34.36,34.36,0,0,0-8.29-.29q-18.51,1.78-37,3.9c-8.72,1-17.41,2.24-26.2,3.38v62.65l10.57-1.26ZM291.12,69.7l-11.29.59V79.1c0,11.67-.12,23.35,0,35,.19,12.9,4.54,17.15,17.56,17.62.51,0,1,0,1.52,0,16.23-.63,32.47-1,48.68-2,13.1-.76,17.27-5.53,17.38-18.86.1-12.44,0-24.88,0-37.32,0-2-.23-3.93-.37-6.17H354.17c-.14,2.83-.36,5.3-.37,7.78,0,12.18.06,24.37-.05,36.55-.06,6.24-1.28,7.68-7.55,8q-24,1.23-47.92,1.92c-5.61.17-7-1.44-7.13-7.35-.13-6.35,0-12.7,0-19Zm509,19.19-83.23-9.26V90l36.21,4.1v52.14l11.42,1.52V95.44l35.6,3.78ZM276.7,483.16,275,481.5l-50.24,41.44.71,1.42c9-3.14,18-6.22,27-9.49a8.27,8.27,0,0,0,3.5-2.83C262.91,502.46,269.79,492.8,276.7,483.16ZM178.53,462c-9.25,2.29-16,5.68-20,13.48l15,17.2c.68-2.5,1.21-3.88,1.42-5.31C176.11,479.36,177.21,471.38,178.53,462Zm66.4-135.25c-.25,5.34-.45,9.69-.65,14.18,15.13-1.61,17.53-4.27,13.5-14.85Z"/><path class="cls-1" d="M480.24,816.65c-1.66-3.42-2.74-5.37-3.57-7.42-5.07-12.45-9.87-25-15.21-37.35a23.88,23.88,0,0,1-.33-19.14c4.75-12.3,9.13-24.75,14.17-36.93,7-16.87,14.39-33.57,21.66-50.32,1-2.2,2.15-4.29,3.23-6.43l1.53.62c-.69,2.88-1.3,5.79-2.08,8.65-5.76,21-11.2,42.15-17.45,63-5.57,18.61-1.85,36,4.73,53.45.53-.29,1.19-.42,1.36-.78,5.41-11.58,14.4-20.19,23.79-28.36q55.17-48,110.63-95.55c6-5.15,9.35-10.6,10.22-18.51,4.3-39.23,4.59-78.51,2.47-117.84a43.37,43.37,0,0,0-8-22.67,287.28,287.28,0,0,0-35.16-41,25.72,25.72,0,0,1-7.56-13.68c-4.61-22.35-9.53-44.64-14.29-67-.41-1.91-.52-3.88-.83-6.27a19.42,19.42,0,0,1,11.66,6.07c26,27.53,50.47,56.32,72,87.53A32.52,32.52,0,0,1,659,482.25a453.12,453.12,0,0,1,1.61,76,526.44,526.44,0,0,1-14.17,92.4c-1.79,7.35-5.59,12.47-11.39,17.21C594,701.43,553.17,735.29,512.25,769a68.76,68.76,0,0,0-17.17,21.1C490.57,798.62,485.71,806.91,480.24,816.65Z"/><path class="cls-1" d="M366.7,395.49c3.76,15.23,7.59,30.44,11.23,45.7,1.17,4.9-.43,9.52-2.41,14-12,27.12-23.49,54.49-36.09,81.33-16.33,34.81-10.71,25.48-35.91,51.07-8.72,8.86-17.74,17.43-26.84,25.9-4.08,3.8-7,8.09-7.72,13.58-1.29,10-2.31,20.14-3.4,30.23a24.66,24.66,0,0,0,3.89,16c5.22,8.39,10.25,16.94,15.91,25a1220.56,1220.56,0,0,0,86.86,109.74c8.3,9.37,17.32,17.76,28.15,24.2,3.08,1.84,5.43,4.89,8.11,7.39l-.93,1.44a34.58,34.58,0,0,1-4.42-1.44c-4.34-2.08-8.51-4.56-12.95-6.41-13.92-5.79-24.81-15.45-35-26.25a1160,1160,0,0,1-90.95-108.36c-5.26-7.14-9.94-14.71-14.79-22.14a25.57,25.57,0,0,1-4.09-17.4c1.61-14.1,3.2-28.21,4.64-42.33.81-7.91,4.35-14.26,9.46-20.27A1300.46,1300.46,0,0,0,352.9,472.63c3.92-5.92,7.34-12.16,11.14-18.16a24.91,24.91,0,0,0,3.77-16.71c-.93-8.06-2-16.1-2.73-24.17-.56-5.95-.73-11.93-1.07-17.9Z"/><path class="cls-1" d="M418,227.69c39.28-5.57,78.81-8.85,118.49-12.33a25.17,25.17,0,0,0-15.11-4.74c-32,.15-63.92.25-95.88.7-12.67.18-25.33,1.45-38,1.74a48.53,48.53,0,0,0-22.47,6.16q-40.47,21.9-81,43.68c-6.43,3.48-12.79,7.1-20.1,11.17,1.49-5.17,4.8-7.31,8.11-9.35,16-9.88,30.51-21.82,44.93-33.86,7.48-6.25,14.26-13,18.73-21.72,3.27-6.43,8.15-9.35,15.66-9.92a1160.8,1160.8,0,0,1,130-2.95c15.46.57,30.91,1.43,46.37,2.06a59.55,59.55,0,0,1,22.75,5.44c33.49,15.3,65.62,33.17,97.63,51.27a15.55,15.55,0,0,1,3.16,2.11c13.73,13.06,27.41,26.17,42.18,40.29-7,.57-11.2-1.41-15.57-4-20-12-40-23.94-60.38-35.34-4.89-2.75-10.92-4-16.58-4.75-9.54-1.21-19.25-1.1-28.81-2.17a53.59,53.59,0,0,1-14.53-3.88c-11.68-4.9-23.19-10.24-34.69-15.57a49.38,49.38,0,0,0-23.67-4.24c-23.05,1.1-46.12,1.9-69.19,2.72-3.95.14-7.92-.2-11.87-.32Z"/><path class="cls-1" d="M147.89,393.41c-1.94,1.73-4.74,3.1-5.67,5.26-2.91,6.74-8.48,10.6-14,14.62-3.68,2.66-7.37,5.3-10.91,7.84-7.18-4.87-8.53-11.54-3.29-17.34a113.83,113.83,0,0,1,14.28-13.67c18.23-14.17,36.79-27.92,55.07-42,3.95-3.05,8-6.46,10.73-10.55a101.33,101.33,0,0,1,37.53-33.65c8.73-4.63,17-10,26.44-15.61-.42,3.64-2.59,4.86-4.36,6.24-6.2,4.85-12.41,9.68-18.73,14.37a10.94,10.94,0,0,0-4.84,8.15c-.48,4.79-1.84,9.51-2.07,14.3s-2.57,6.69-6.59,8c-5.28,1.78-10.39,4.09-15.67,5.86-5,1.69-8.66,5-13.25,9.7,2.83-.31,4.39-.34,5.88-.67,5.44-1.22,10.82-2.79,16.3-3.73,2.6-.44,5.71-.46,8,.59,4.51,2,8.83,1.78,13.34.68,3.69-.9,7.36-2,11.09-2.66,11.64-2.16,22.6-5.75,31.57-13.94a4.07,4.07,0,0,1,2.77-.88c-4,7.44-9.54,13.13-17.6,16.17q-38.44,14.52-76.84,29.1a33.22,33.22,0,0,0-5,1.83,64.63,64.63,0,0,0-5.74,4.18l.55,1.48c5.46.5,10.93,1.53,16.38,1.39,9.35-.24,16.55,3.15,22.58,10.25,4.91,5.79,10.57,10.95,15.83,16.46,1.7,1.78,3.18,3.77,5.52,6.57-9.88,1.8-18.75,3.31-27.58,5-14.68,2.87-29.3,6.07-44,8.73-5.65,1-8.32,4-9.42,9.33-1.7,8.17-3.64,16.29-5.75,25.61-2.8-1.7-5.54-2.61-7.17-4.49-6.65-7.65-13.15-15.46-19.34-23.48-3.2-4.15-2.91-6,.57-10.14,4.91-5.82,9.82-11.67,15.18-17.07C145.55,409.33,147.37,402,147.89,393.41Z"/><path class="cls-1" d="M541.8,304.31a63.06,63.06,0,0,1,5.51-3.22c17-7.32,34.08-14.49,51.05-21.9,7.53-3.29,14.49-2.75,21.91.74A696.51,696.51,0,0,1,724,340.59,18.07,18.07,0,0,1,731.72,353c6.91,37.48,7.69,75.17,4.27,113a25.53,25.53,0,0,1-2.54,8.67c-15.41,31.8-32.64,62.54-53.75,91a19.18,19.18,0,0,1-6,5.57c.23-4.1.94-8.23.62-12.28-.91-11.18,3.26-19.27,12.9-25.15,3-1.85,5.38-5.42,7.13-8.69,7.91-14.76,15.46-29.7,23.19-44.55a58.65,58.65,0,0,0,6.31-36.83c-3.17-21.06-6-42.18-9.07-63.26-.29-2-1-3.94-1.35-5.93-1.1-6-4.55-10-10.13-12.37-10.28-4.35-20.63-8.53-30.73-13.27A83.06,83.06,0,0,1,657,339.65c-15.45-12-30.67-24.24-45.84-36.56-6.42-5.23-13.17-6.95-21.25-4.48-6.78,2.07-14,2.82-20.63,5.19C560.51,306.94,552,305.44,541.8,304.31Z"/><path class="cls-1" d="M446.76,847.3c-1-1.41-2.07-2.76-2.91-4.25C420.31,801.23,398.2,758.72,379,714.68a44.85,44.85,0,0,1-2.44-30.92C387,644.2,400,605.53,414,567.13c4.5-12.4,9.33-24.68,14-37a23.42,23.42,0,0,1,3.39-6.16c2,8.71,5.56,17.12,3.73,26.28-8.09,40.54-16.53,81-24.25,121.62-2.89,15.18-4.55,30.63-6,46a39,39,0,0,0,2.37,16.37c8.44,23.1,17.38,46,26.27,69,2.84,7.33,5.77,14.66,9.23,21.71S447.2,839.37,446.76,847.3Z"/><path class="cls-1" d="M240.3,316.46c2.43-1.18,4.76-2.67,7.31-3.47,7.32-2.29,12.74-6.77,17.2-13A179.34,179.34,0,0,1,278.72,283c3.2-3.45,6.85-7,11-8.91,17-7.79,34.2-15.29,51.58-22.24,10.27-4.1,21.2-2.62,32.21-2.21-.28,1.63-.22,2.45-.56,3-8,13.83-15.76,27.75-24.11,41.35-1.67,2.71-5.15,5-8.27,6-15.36,5.11-30.87,9.8-46.37,14.52-12.05,3.68-24.6,2.75-36.94,3.66-5.45.4-11,.07-16.42.07Z"/><path class="cls-1" d="M241.64,434.32c3.09.15,6.29-.18,9.25.53,16,3.8,32,8,48,11.79,7.76,1.85,10.87,7.9,13.38,14.32.69,1.77-.06,4.63-1.08,6.46-11.12,19.94-22.41,39.77-33.68,59.63-2.14,3.77-5.66,5.56-9.64,6.9-15.38,5.17-30.71,10.47-46.06,15.73-7,2.39-7.33,2.88-6.17,9.69,1.27,7.5,2.56,15,4,22.45,1,5.23,2,5.95,7.27,5,6-1.08,11.88-2.65,17.82-3.93a8.35,8.35,0,0,1,5.64.64c-3.25,2.62-6.13,6.19-9.83,7.65a152.21,152.21,0,0,1-21.88,6.32c-4.83,1.1-6.29-.09-7.58-5.09C209.28,585.28,207.94,578,206,571c-2.36-8.54-4.4-17.29-8-25.34-3.86-8.69-2.82-17.15-2-26.9,2,1.41,3.47,2.24,4.71,3.28,3.69,3.09,7.38,6.2,10.94,9.45a8.85,8.85,0,0,0,9.72,2c11-3.79,22.22-7.11,33.16-11.14a20.85,20.85,0,0,0,8.34-6.25,269.54,269.54,0,0,0,29.47-44.29c4.64-8.71,1.61-16.45-7.75-19.95-12.12-4.52-24.32-8.81-36.47-13.23-2.27-.82-4.49-1.81-6.73-2.72C241.45,435.36,241.54,434.84,241.64,434.32Z"/><path class="cls-1" d="M494.1,403.17c-5.46-3.2-8-6.68-9.39-11.29-4.6-15.28-9.26-30.54-14.14-45.73-1.32-4.1-.6-7.2,2-10.51q9-11.33,17.41-23.05c4.77-6.58,1.44-17.63-6.12-20.83-4.54-1.91-8.94-2.43-13.89-.37-12.86,5.34-26.06,9.86-38.89,15.28-6.14,2.6-12,3.52-18.42,1.87-4.37-1.12-8.88-1.7-13.3-2.51,1.29-9.85,6.14-15.58,15-17.39,20.84-4.24,41.77-8.09,62.57-12.55,7.8-1.67,13.78,1.81,20,5.14a6.93,6.93,0,0,1,2.25,2.93,10.83,10.83,0,0,1,.82,2.91c5.55,26,5.69,20.14-6.71,40.24-2.12,3.45-4.09,7.09-6.76,10.09-4.28,4.83-4,10.05-2.75,15.72,3.22,14.85,6.31,29.73,9.43,44.61C493.52,399.17,493.7,400.64,494.1,403.17Z"/><path class="cls-1" d="M252.89,124.05v10.16l-79.14,6V77.38l78.93-6c.23,2.39.48,3.83.48,5.27s-.24,3-.43,5.07L184.9,86.87v15l60.26-4.35v10.23l-60.35,4.67v16.38Z"/><path class="cls-1" d="M464.87,118.73v-16.5H433.14V92.12h43.11c.58,12.08.38,24.08.07,36.59-2.74.21-4.94.52-7.13.52q-27.78-.06-55.57-.26a61.29,61.29,0,0,1-9.84-.86c-7-1.2-11.22-5.06-11.52-12.13-.51-11.9-.55-23.86,0-35.76.36-7.71,4.68-11.68,12.4-13.26A43,43,0,0,1,413,66c18.27,0,36.54.06,54.81.13,1.22,0,2.45.25,4.12.43v9.94h-8.31c-16.75,0-33.5-.13-50.24-.07-9.26,0-10.46,1.35-10.49,10.66,0,7.86-.13,15.73,0,23.6.13,5.74,2.2,8,7.78,8C428.4,118.82,446.14,118.73,464.87,118.73Z"/><path class="cls-1" d="M514.46,77.48v15l60.71,2.46v9.93c-9.92.91-19.92-.85-29.93-.92s-20.17,0-30.73,0v15.55L583,122.31c.15,3.34.29,6.24.47,10.27l-80.21-3.06c-.12-20.68-.05-41.06,0-62.45,26.92.06,53.09,1.56,79.73,2.86V80Z"/><path class="cls-1" d="M696.67,109.42c0,5.57.21,11.16,0,16.72-.38,7.88-4.47,12.24-12.34,12.62a158.28,158.28,0,0,1-18.21-.5c-11.12-.72-22.23-1.6-33.33-2.54a71.21,71.21,0,0,1-10.5-1.51c-7.7-1.82-11.63-5.8-12-13.67-.5-11.64-.5-23.32,0-34.95.31-8,4.46-11.71,12.53-12.53a49.43,49.43,0,0,1,8.34-.18q23.11,1.62,46.21,3.46a34.32,34.32,0,0,1,7.42,1.52c7.95,2.49,11.57,7.29,12,15.6,0,.5,0,1,0,1.52v14.44Zm-10.82-.94c0-4.56.12-9.12,0-13.67-.19-5.5-1.78-7.48-7-7.94q-25.32-2.22-50.67-4c-4.67-.34-6.85,1.43-7,6q-.4,14.79,0,29.6c.13,4.29,2.37,6.19,6.9,6.55q25.34,2,50.7,3.75c5.06.34,6.84-1.47,7-6.59C686,117.59,685.84,113,685.85,108.48Z"/><path class="cls-1" d="M76.63,131.27v19.32l-10.57,1.26V89.2c8.79-1.14,17.48-2.38,26.2-3.38q18.46-2.11,37-3.9a34.36,34.36,0,0,1,8.29.29c5.92.86,10,4.43,10.58,10.3A89.1,89.1,0,0,1,148,112.1c-.79,6.37-5.45,10.31-11.58,11.66s-12.46,2-18.73,2.8C104.38,128.17,91.07,129.63,76.63,131.27Zm.5-10.56L92.3,119c12.81-1.45,25.64-2.79,38.43-4.38,5.61-.7,6.8-2.26,7-7.87q.13-3.8,0-7.59c-.2-6.26-1.77-7.75-7.79-7.14q-14,1.39-27.9,3c-8.22,1-16.42,2.09-24.93,3.18Z"/><path class="cls-1" d="M291.12,69.7V95.32c0,6.34-.1,12.69,0,19,.12,5.91,1.52,7.52,7.13,7.35q24-.72,47.92-1.92c6.27-.32,7.49-1.76,7.55-8,.11-12.18,0-24.37.05-36.55,0-2.48.23-4.95.37-7.78h10.47c.14,2.24.37,4.21.37,6.17,0,12.44.1,24.88,0,37.32-.11,13.33-4.28,18.1-17.38,18.86-16.21.94-32.45,1.33-48.68,2-.51,0-1,0-1.52,0-13-.47-17.37-4.72-17.56-17.62-.16-11.68,0-23.36,0-35V70.29Z"/><path class="cls-1" d="M800.12,88.89V99.22l-35.6-3.78v52.29l-11.42-1.52V94.07L716.89,90V79.63Z"/><path class="cls-1" d="M276.7,483.16c-6.91,9.64-13.79,19.3-20.77,28.88a8.27,8.27,0,0,1-3.5,2.83c-8.94,3.27-18,6.35-27,9.49l-.71-1.42L275,481.5Z"/><path class="cls-1" d="M178.53,462c-1.32,9.43-2.42,17.41-3.59,25.37-.21,1.43-.74,2.81-1.42,5.31l-15-17.2C162.51,467.63,169.28,464.24,178.53,462Z"/><path class="cls-1" d="M244.93,326.7l12.85-.67c4,10.58,1.63,13.24-13.5,14.85C244.48,336.39,244.68,332,244.93,326.7Z"/><path d="M685.84,108.48c0,4.55.15,9.11,0,13.66-.21,5.12-2,6.93-7,6.59q-25.37-1.68-50.7-3.75c-4.53-.36-6.77-2.26-6.9-6.55q-.46-14.79,0-29.6c.13-4.55,2.31-6.32,7-6q25.35,1.8,50.67,4c5.27.46,6.86,2.44,7,7.94C686,99.36,685.85,103.92,685.84,108.48Z"/><path d="M77.13,120.71V98.24c8.51-1.09,16.71-2.22,24.93-3.18Q116,93.43,130,92c6-.61,7.59.88,7.79,7.14q.13,3.79,0,7.59c-.22,5.61-1.41,7.17-7,7.87-12.79,1.59-25.62,2.93-38.43,4.38Z"/></svg>