<svg id="Calque_1" data-name="Calque 1" xmlns="http://www.w3.org/2000/svg" viewBox="0 0 451.72 481.51"><path d="M211.68-1.31c-4.84,9.05-70.07,131.08-98.17,183.51a4.51,4.51,0,0,0,0,4.9c27.53,51.37,83.32,155.6,83.9,156.57.58-1,56.37-105.19,83.9-156.56a4.55,4.55,0,0,0,.06-4.91q-23.64-43.95-47.16-87.95a4.71,4.71,0,0,1,0-5.17c4.33-7.8,8.48-15.71,12.88-23.91.62,1.06,42.36,79,62.84,117.18a4.1,4.1,0,0,1,.05,4.45Q261.4,277.51,213,368.27c-.87,1.62-1.74,2.35-3.7,2.32-8-.14-16-.09-24,0a2.87,2.87,0,0,1-3-1.78Q133.55,277.58,84.74,186.4a3.27,3.27,0,0,1,0-3.52Q133.52,91.71,182.3.53c.41-.77,1.38-1.75,2.09-1.76C193.32-1.35,202.26-1.31,211.68-1.31Z" transform="translate(0 1.37)"/><path d="M248.68,35.93c-14.89,27.76-55.94,104.44-78.32,146.2a4.53,4.53,0,0,0-.05,4.9q23.63,44,47.16,88a4.69,4.69,0,0,1,0,5.16c-4.32,7.8-8.47,15.71-12.87,23.91-.58-1-42.33-78.93-62.84-117.18a4.14,4.14,0,0,1-.05-4.46Q190.32,91.73,238.78,1c.86-1.62,1.75-2.35,3.7-2.31,8,.13,16,.09,24,0a2.87,2.87,0,0,1,3,1.78Q318.17,91.66,367,182.83a3.25,3.25,0,0,1,0,3.52Q318.2,277.52,269.42,368.7c-.41.77-1.38,1.74-2.1,1.75-8.93.12-17.86.08-27.22.08.62-1.19,65.88-123.35,98.12-183.51a4.53,4.53,0,0,0-.06-4.9c-27.53-51.37-83.32-155.59-83.9-156.56-.11.18-2.15,4-5.58,10.37" transform="translate(0 1.37)"/><path d="M18.72,478.93H5.19V420.11a3,3,0,0,0-.25-1.48,3,3,0,0,0-1.28-.76L0,416.44l1.12-5.9H35.31q13.23,0,19,5t5.8,16.23q0,8.85-3.61,13.64t-11.25,6.2L62,478.93H47L31.85,453.18H18.72Zm0-35.93H33.79q7,0,10-2.54c2-1.69,3-4.58,3-8.65s-1-6.85-3-8.55-5.34-2.54-10-2.54H18.72Z" transform="translate(0 1.37)"/><path d="M122.93,410.54v10.38H87.11v18.22H115.6v10H87.11v19.44h36.63v10.38H73.57V420.11a2.86,2.86,0,0,0-.25-1.48,3,3,0,0,0-1.27-.76l-3.67-1.43,1.12-5.9Z" transform="translate(0 1.37)"/><path d="M134.94,420.11a2.83,2.83,0,0,0-.26-1.48,3,3,0,0,0-1.27-.76l-3.66-1.43,1.12-5.9h15.26a3.55,3.55,0,0,1,2,.36,12.82,12.82,0,0,1,1.68,2l35.11,47.53V410.54h12.52v68.39H184.29l-36.84-49.87v49.87H134.94Z" transform="translate(0 1.37)"/><path d="M245.76,410.54q2,3.66,4.37,8.8T255,430.49q2.49,6,4.93,12.51c1.63,4.35,3.17,8.65,4.63,12.93s2.8,8.38,4,12.31,2.24,7.5,3.05,10.69H258c-.75-2.78-1.53-5.5-2.34-8.14s-1.6-5.26-2.34-7.84H223.16q-1.22,3.87-2.39,7.84c-.78,2.64-1.54,5.36-2.29,8.14H204.85q1.22-4.79,3.05-10.69t4-12.31c1.46-4.28,3-8.58,4.63-12.93s3.27-8.51,4.93-12.51,3.28-7.72,4.84-11.15,3-6.36,4.37-8.8Zm-7.54,12q-6.51,14.65-11.8,30.43H250Q244.54,437.2,238.22,422.55Z" transform="translate(0 1.37)"/><path d="M278.42,420.11a2.86,2.86,0,0,0-.25-1.48,3,3,0,0,0-1.28-.76l-3.66-1.43,1.12-5.9H291c.61,0,.92.34.92,1v39.59q0,9.77,4.17,14t13.53,4.27q9.46,0,13.59-4.27t4.12-14V410.54H340.9v41.62a40,40,0,0,1-1.78,12.72,20,20,0,0,1-5.54,8.7,22.87,22.87,0,0,1-9.72,5,64.56,64.56,0,0,1-28.39,0,22.87,22.87,0,0,1-9.72-5,20.15,20.15,0,0,1-5.55-8.7,40,40,0,0,1-1.78-12.72Z" transform="translate(0 1.37)"/><path d="M356.57,420.11a2.86,2.86,0,0,0-.25-1.48,3,3,0,0,0-1.27-.76l-3.67-1.43,1.12-5.9h16.69c.61,0,.92.34.92,1v57h31.24v10.38H356.57Z" transform="translate(0 1.37)"/><path d="M416,420.92H393.82V410.54h57.9v10.38H429.54v58H416Z" transform="translate(0 1.37)"/></svg>