<svg id="katman_1" data-name="katman 1" xmlns="http://www.w3.org/2000/svg" viewBox="0 0 865.88 865.88"><path d="M433.8,826.05c-215.6,0-392.24-177.51-392.24-393.11A384.64,384.64,0,0,1,66.67,295.26L296.13,756.78c2.6,6.06,6.93,11.25,13.85,11.25s11.26-5.19,13.86-11.25L429.47,520.39c.87-2.6,2.6-5.19,5.2-5.19s3.46,2.59,5.19,5.19L545.5,756.78c2.6,6.06,6.93,11.25,13.86,11.25s11.25-5.19,13.85-11.25L802.67,295.26a384.64,384.64,0,0,1,25.11,137.68C826.05,648.54,649.41,826.05,433.8,826.05Zm0-482.3c-2.59,0-3.46-2.6-5.19-5.19l-123-277.08a375.88,375.88,0,0,1,256.3,0L439,338.56C437.27,342,436.4,343.75,433.8,343.75ZM308.25,628.63c-2.6,0-3.46-2.6-5.19-5.2L103.91,221.66C139.41,167.11,187,121.22,245,89.19l143.74,319.5c1.73,5.2,6.06,6.93,10.39,6.93h69.27c5.19,0,8.66-.87,11.26-6.93L623.43,89.19A405.69,405.69,0,0,1,764.57,221.66L563.68,623.43c-.86,2.6-2.59,5.2-5.19,5.2s-3.46-2.6-5.2-5.2L478,452c-2.59-6.06-6.06-6.93-11.25-6.93H397.44c-5.2,0-8.66.87-11.26,6.93L313.45,623.43C312.58,626,310.85,628.63,308.25,628.63ZM433.8,865.88A432.94,432.94,0,1,0,.87,432.94,432,432,0,0,0,433.8,865.88Z" transform="translate(-0.87)"/></svg>